<svg width="914" height="870" viewBox="0 0 914 870" fill="none" xmlns="http://www.w3.org/2000/svg">
<path d="M308.7 736.698L157 133.398L757 301.898" fill="white"/>
<path d="M382.8 477.402L420.7 628.302" stroke="black" stroke-width="7" stroke-miterlimit="10"/>
<path d="M532.5 519.802L382.8 477.402" stroke="black" stroke-width="7" stroke-miterlimit="10"/>
<path d="M420.7 628.301L532.5 519.801" stroke="black" stroke-width="7" stroke-miterlimit="10"/>
<path d="M420.7 628.302L271 585.902" stroke="black" stroke-width="7" stroke-miterlimit="10"/>
<path d="M271 585.902L308.9 736.902L420.7 628.302" stroke="black" stroke-width="7" stroke-miterlimit="10"/>
<path d="M271 585.902L382.8 477.402" stroke="black" stroke-width="7" stroke-miterlimit="10"/>
<path d="M382.8 477.401L494.7 368.801" stroke="black" stroke-width="7" stroke-miterlimit="10"/>
<path d="M494.7 368.801L606.5 260.301" stroke="black" stroke-width="7" stroke-miterlimit="10"/>
<path d="M456.8 217.902L494.7 368.802" stroke="black" stroke-width="7" stroke-miterlimit="10"/>
<path d="M494.699 368.8L344.899 326.5" stroke="black" stroke-width="7" stroke-miterlimit="10"/>
<path d="M344.899 326.5L382.799 477.4" stroke="black" stroke-width="7" stroke-miterlimit="10"/>
<path d="M382.8 477.4L233.1 435" stroke="black" stroke-width="7" stroke-miterlimit="10"/>
<path d="M233.1 435L271 585.9" stroke="black" stroke-width="7" stroke-miterlimit="10"/>
<path d="M195.2 284.102L233.1 435.002" stroke="black" stroke-width="7" stroke-miterlimit="10"/>
<path d="M344.9 326.502L195.2 284.102" stroke="black" stroke-width="7" stroke-miterlimit="10"/>
<path d="M233.1 435L344.9 326.5" stroke="black" stroke-width="7" stroke-miterlimit="10"/>
<path d="M344.899 326.402L456.799 217.902" stroke="black" stroke-width="7" stroke-miterlimit="10"/>
<path d="M456.8 217.9L307 175.5" stroke="black" stroke-width="7" stroke-miterlimit="10"/>
<path d="M307 175.5L344.9 326.4" stroke="black" stroke-width="7" stroke-miterlimit="10"/>
<path d="M195.2 284.102L157.3 133.102L307 175.502" stroke="black" stroke-width="7" stroke-miterlimit="10"/>
<path d="M195.2 284.1L307 175.5" stroke="black" stroke-width="7" stroke-miterlimit="10"/>
<path d="M644.4 411.201L756.2 302.701L606.5 260.301" stroke="black" stroke-width="7" stroke-miterlimit="10"/>
<path d="M606.5 260.301L644.4 411.201" stroke="black" stroke-width="7" stroke-miterlimit="10"/>
<path d="M644.4 411.201L494.7 368.801" stroke="black" stroke-width="7" stroke-miterlimit="10"/>
<path d="M494.7 368.801L532.5 519.801" stroke="black" stroke-width="7" stroke-miterlimit="10"/>
<path d="M532.5 519.803L644.4 411.203" stroke="black" stroke-width="7" stroke-miterlimit="10"/>
<path d="M606.5 260.302L456.8 217.902" stroke="black" stroke-width="7" stroke-miterlimit="10"/>
</svg>
