<svg width="752" height="748" viewBox="0 0 752 748" fill="none" xmlns="http://www.w3.org/2000/svg">
<path d="M227.7 675.698L76 72.3984L676 240.898" fill="white"/>
<path d="M301.8 416.402L339.7 567.302" stroke="black" stroke-width="7" stroke-miterlimit="10"/>
<path d="M451.5 458.802L301.8 416.402" stroke="black" stroke-width="7" stroke-miterlimit="10"/>
<path d="M339.7 567.301L451.5 458.801" stroke="black" stroke-width="7" stroke-miterlimit="10"/>
<path d="M339.7 567.302L190 524.902" stroke="black" stroke-width="7" stroke-miterlimit="10"/>
<path d="M190 524.902L227.9 675.902L339.7 567.302" stroke="black" stroke-width="7" stroke-miterlimit="10"/>
<path d="M190 524.902L301.8 416.402" stroke="black" stroke-width="7" stroke-miterlimit="10"/>
<path d="M301.8 416.401L413.7 307.801" stroke="black" stroke-width="7" stroke-miterlimit="10"/>
<path d="M413.7 307.801L525.5 199.301" stroke="black" stroke-width="7" stroke-miterlimit="10"/>
<path d="M375.8 156.902L413.7 307.802" stroke="black" stroke-width="7" stroke-miterlimit="10"/>
<path d="M413.699 307.8L263.899 265.5" stroke="black" stroke-width="7" stroke-miterlimit="10"/>
<path d="M263.899 265.5L301.799 416.4" stroke="black" stroke-width="7" stroke-miterlimit="10"/>
<path d="M301.8 416.4L152.1 374" stroke="black" stroke-width="7" stroke-miterlimit="10"/>
<path d="M152.1 374L190 524.9" stroke="black" stroke-width="7" stroke-miterlimit="10"/>
<path d="M114.2 223.102L152.1 374.002" stroke="black" stroke-width="7" stroke-miterlimit="10"/>
<path d="M263.9 265.502L114.2 223.102" stroke="black" stroke-width="7" stroke-miterlimit="10"/>
<path d="M152.1 374L263.9 265.5" stroke="black" stroke-width="7" stroke-miterlimit="10"/>
<path d="M263.899 265.402L375.799 156.902" stroke="black" stroke-width="7" stroke-miterlimit="10"/>
<path d="M375.8 156.9L226 114.5" stroke="black" stroke-width="7" stroke-miterlimit="10"/>
<path d="M226 114.5L263.9 265.4" stroke="black" stroke-width="7" stroke-miterlimit="10"/>
<path d="M114.2 223.102L76.2998 72.1016L226 114.502" stroke="black" stroke-width="7" stroke-miterlimit="10"/>
<path d="M114.2 223.1L226 114.5" stroke="black" stroke-width="7" stroke-miterlimit="10"/>
<path d="M563.4 350.201L675.2 241.701L525.5 199.301" stroke="black" stroke-width="7" stroke-miterlimit="10"/>
<path d="M525.5 199.301L563.4 350.201" stroke="black" stroke-width="7" stroke-miterlimit="10"/>
<path d="M563.4 350.201L413.7 307.801" stroke="black" stroke-width="7" stroke-miterlimit="10"/>
<path d="M413.7 307.801L451.5 458.801" stroke="black" stroke-width="7" stroke-miterlimit="10"/>
<path d="M451.5 458.803L563.4 350.203" stroke="black" stroke-width="7" stroke-miterlimit="10"/>
<path d="M525.5 199.302L375.8 156.902" stroke="black" stroke-width="7" stroke-miterlimit="10"/>
</svg>
