<svg width="82" height="81" viewBox="0 0 82 81" fill="none" xmlns="http://www.w3.org/2000/svg">
<path d="M3.99397e-07 40.2778C1.29804e-06 60.8363 40.9125 40.2778 40.9125 40.2778C40.9125 40.2778 -4.99246e-07 19.7192 3.99397e-07 40.2778Z" fill="#FE5621"/>
<path d="M81.8252 40.2778C81.8252 60.8363 40.9127 40.2778 40.9127 40.2778C40.9127 40.2778 81.8252 19.7192 81.8252 40.2778Z" fill="#FE5621"/>
<path d="M20.4564 75.7092C38.2607 85.9885 40.9127 40.2779 40.9127 40.2779C40.9127 40.2779 2.65222 65.4299 20.4564 75.7092Z" fill="#FE5621"/>
<path d="M61.3688 4.84591C79.173 15.1252 40.9125 40.2772 40.9125 40.2772C40.9125 40.2772 43.5646 -5.43336 61.3688 4.84591Z" fill="#FE5621"/>
<path d="M61.3685 75.7092C43.5643 85.9885 40.9123 40.2779 40.9123 40.2779C40.9123 40.2779 79.1727 65.4299 61.3685 75.7092Z" fill="#FE5621"/>
<path d="M20.4562 4.84591C2.65194 15.1252 40.9124 40.2772 40.9124 40.2772C40.9124 40.2772 38.2604 -5.43336 20.4562 4.84591Z" fill="#FE5621"/>
</svg>
